<?xml version="1.0" encoding="UTF-8"?>
<svg id="Calque_1" data-name="Calque 1" xmlns="http://www.w3.org/2000/svg" viewBox="0 0 1080 430">
  <defs>
    <style>
      .cls-1 {
        fill: #1d3643;
      }
    </style>
  </defs>
  <path class="cls-1" d="m283.18,156.89c0-44.7-32.88-71.81-85.94-71.81h-83.05v76.99l37.89-.28-.4-44.99h43.83c32.88,0,49.89,14.71,49.89,40.08s-17.01,40.08-49.89,40.08h-43.43c-20.49,0-37.89,15.03-37.89,37.79v52.18h37.49v-42.02c0-8.96,7.27-16.23,16.23-16.23h29.33c53.06,0,85.94-27.39,85.94-71.81Z"/>
  <path class="cls-1" d="m439.28,221.49c4.28-23.93.52-44.01-8.26-58.76-14.73-24.73-53.74-37.57-82.22-29.73-36.56,10.06-62.42,40.91-61.66,78.82.9,44.89,34.14,77.15,85.05,77.15,26.53,0,48.16-8.65,62-25.09l-19.32-22.2c-10.96,11.25-24.51,16.73-41.81,16.73-26.82,0-45.56-14.42-49.89-36.91h116.11Zm-72.57-61.42c24.63,0,44.8,13.16,44.8,37.49h-88.64c3.46-22.5,20.48-37.49,43.83-37.49Z"/>
  <path class="cls-1" d="m538.1,131.23c-45.86,0-78.77,38.05-78.77,78.97v132.69h36.05v-66.88c4.77,4.77,23.11,12.96,42.72,12.96,44.99,0,78.77-36.93,78.77-79.01s-33.78-78.73-78.77-78.73Zm2.56,126.88c-25.95,0-45.85-18.74-45.85-48.16s19.9-48.16,45.85-48.16,45.56,18.75,45.56,48.16-19.61,48.16-45.56,48.16Z"/>
  <path class="cls-1" d="m716.05,131.4c-45.86,0-78.77,38.05-78.77,78.97v132.69h36.05v-66.88c4.77,4.77,23.11,12.96,42.72,12.96,44.99,0,78.77-36.93,78.77-79.01s-33.78-78.73-78.77-78.73Zm2.56,126.88c-25.95,0-45.85-18.74-45.85-48.16s19.9-48.16,45.85-48.16,45.56,18.75,45.56,48.16-19.61,48.16-45.56,48.16Z"/>
  <path class="cls-1" d="m965.81,132.96l-25.42,58.66-46.68,107.73c-14.13,34.89-33.74,45.56-59.4,45.56-15.28,0-31.43-5.19-41.24-14.13l14.42-26.53c6.92,6.63,16.73,10.67,26.53,10.67,12.69,0,20.19-6.06,27.11-21.34l2.6-6.06-67.19-154.57h37.49l48.45,113.91,48.73-113.91h34.6Z"/>
</svg>